<svg width="24" height="24" viewBox="0 0 24 24" xmlns="http://www.w3.org/2000/svg">
<path fill-rule="evenodd" clip-rule="evenodd" d="M6.5654 4.09991C6.54931 4.0915 6.5333 4.08259 6.51738 4.07319C5.03313 3.19603 3.13522 3.71657 2.27828 5.23586L1.41627 6.76414C1.40737 6.77993 1.39861 6.79577 1.38999 6.81165C0.578832 8.30743 1.07243 10.1942 2.50509 11.0749C2.52066 11.0845 2.53634 11.0939 2.55214 11.1033C3.22653 11.5018 3.22651 12.4982 2.55216 12.8967C2.53637 12.906 2.52068 12.9155 2.50511 12.9251C1.07245 13.8058 0.578852 15.6926 1.39002 17.1883C1.39863 17.2042 1.40739 17.2201 1.41629 17.2359L2.2783 18.7641C3.13524 20.2834 5.03315 20.804 6.51741 19.9268C6.53332 19.9174 6.54933 19.9085 6.56542 19.9001C7.23108 19.552 8.03474 20.0452 8.03474 20.8235C8.03474 22.5778 9.4241 24 11.138 24H12.862C14.5759 24 15.9652 22.5778 15.9652 20.8235C15.9652 20.0453 16.7689 19.5519 17.4346 19.9001C17.4507 19.9085 17.4667 19.9174 17.4826 19.9268C18.9668 20.804 20.8648 20.2834 21.7217 18.7641L22.5837 17.2359C22.5926 17.2201 22.6014 17.2042 22.61 17.1883C23.4211 15.6926 22.9276 13.8058 21.4949 12.9251C21.4793 12.9155 21.4636 12.9061 21.4478 12.8967C20.7735 12.4982 20.7735 11.5018 21.4479 11.1033C21.4637 11.0939 21.4793 11.0845 21.4949 11.0749C22.9276 10.1942 23.4212 8.30743 22.61 6.81165C22.6014 6.79577 22.5926 6.77993 22.5837 6.76413L21.7217 5.23585C20.8648 3.71657 18.9669 3.19602 17.4826 4.07318C17.4667 4.08259 17.4507 4.09149 17.4346 4.09991C16.7689 4.44806 15.9652 3.95473 15.9652 3.17647C15.9652 1.42215 14.5759 0 12.862 0H11.138C9.4241 0 8.03474 1.42215 8.03474 3.17647C8.03474 3.95474 7.23108 4.44805 6.5654 4.09991ZM16.5633 14.0466C16.8439 13.4219 17 12.7292 17 12C17 11.2708 16.8439 10.578 16.5633 9.95335C16.404 9.59875 16.2046 9.26607 15.9709 8.9611C15.1562 7.89823 13.9245 7.17191 12.5202 7.02674C12.3492 7.00906 12.1757 7 12 7C11.8243 7 11.6507 7.00906 11.4797 7.02674C10.0755 7.17192 8.84378 7.89824 8.02915 8.96111C7.7954 9.26607 7.596 9.59875 7.43671 9.95335C7.1561 10.578 7 11.2708 7 12C7 12.7292 7.1561 13.4219 7.43671 14.0466C7.596 14.4012 7.79541 14.7339 8.02916 15.0389C8.84379 16.1018 10.0755 16.8281 11.4797 16.9733C11.6507 16.9909 11.8243 17 12 17C12.1757 17 12.3492 16.9909 12.5202 16.9733C13.9245 16.8281 15.1562 16.1018 15.9708 15.0389C16.2046 14.7339 16.404 14.4013 16.5633 14.0466ZM5.93537 17.2175C5.69614 17.2945 5.45907 17.3985 5.22724 17.5312C5.2119 17.54 5.19658 17.5489 5.18129 17.558C5.16525 17.5674 5.14886 17.5758 5.13222 17.5829C4.95125 17.6607 4.74039 17.6026 4.62207 17.4422C4.61145 17.4277 4.60157 17.4125 4.59253 17.3965L3.73052 15.8682C3.62043 15.673 3.67259 15.4276 3.84416 15.2954C3.85809 15.2847 3.8728 15.2747 3.88827 15.2655C3.90407 15.2562 3.91977 15.2468 3.93537 15.2373C4.14427 15.1098 4.33493 14.9664 4.50735 14.8098C4.57152 14.7515 4.63315 14.6914 4.69227 14.6297C4.76461 14.5541 4.83317 14.476 4.89794 14.3956C5.45276 13.7073 5.73016 12.8536 5.73016 12C5.73016 11.1464 5.45274 10.2927 4.89792 9.6044C4.83314 9.52403 4.76458 9.44592 4.69224 9.37033C4.63314 9.30856 4.57151 9.24847 4.50735 9.19021C4.33492 9.03361 4.14425 8.89019 3.93535 8.76272C3.91975 8.75321 3.90405 8.74378 3.88825 8.73444C3.87278 8.7253 3.85807 8.71532 3.84414 8.70459C3.67257 8.57244 3.62041 8.32696 3.73049 8.13178L4.5925 6.6035C4.60155 6.58747 4.61143 6.57224 4.62205 6.55783C4.74037 6.39738 4.95123 6.33927 5.1322 6.41708C5.14884 6.42424 5.16523 6.43254 5.18127 6.44202C5.19656 6.45106 5.21188 6.45997 5.22722 6.46876C5.45906 6.60153 5.69614 6.7055 5.93537 6.78248C6.01937 6.80951 6.10363 6.8332 6.18802 6.85366C6.27824 6.87552 6.36862 6.89367 6.45899 6.90821C8.13382 7.17759 9.80543 6.2047 10.4401 4.60044C10.4806 4.49795 10.5169 4.39289 10.5487 4.28541C10.5645 4.23198 10.5792 4.17796 10.5928 4.12336C10.6671 3.82402 10.707 3.50732 10.707 3.17647C10.707 2.93282 10.8999 2.73529 11.138 2.73529H12.862C13.1 2.73529 13.293 2.93282 13.293 3.17647C13.293 3.50732 13.3329 3.82402 13.4072 4.12336C13.4207 4.17796 13.4354 4.23198 13.4512 4.28541C13.4831 4.39289 13.5194 4.49795 13.5599 4.60043C14.1945 6.2047 15.8662 7.17759 17.541 6.9082C17.6314 6.89367 17.7218 6.87551 17.812 6.85365C17.8964 6.8332 17.9806 6.8095 18.0646 6.78247C18.3039 6.7055 18.5409 6.60153 18.7728 6.46875C18.7881 6.45997 18.8034 6.45106 18.8187 6.44202C18.8348 6.43254 18.8512 6.42423 18.8678 6.41708C19.0488 6.33927 19.2596 6.39738 19.378 6.55783C19.3886 6.57224 19.3985 6.58747 19.4075 6.6035L20.2695 8.13178C20.3796 8.32695 20.3274 8.57243 20.1559 8.70459C20.1419 8.71531 20.1272 8.72529 20.1117 8.73444C20.0959 8.74377 20.0802 8.7532 20.0647 8.76272C19.8557 8.89018 19.6651 9.03361 19.4926 9.1902C19.4285 9.24847 19.3669 9.30855 19.3078 9.37032C19.2354 9.44592 19.1669 9.52403 19.1021 9.60439C18.5473 10.2927 18.2698 11.1464 18.2698 12C18.2698 12.8536 18.5472 13.7073 19.1021 14.3956C19.1668 14.476 19.2354 14.5541 19.3077 14.6297C19.3668 14.6914 19.4285 14.7515 19.4926 14.8098C19.6651 14.9664 19.8557 15.1098 20.0646 15.2373C20.0802 15.2468 20.0959 15.2562 20.1117 15.2656C20.1272 15.2747 20.1419 15.2847 20.1558 15.2954C20.3274 15.4276 20.3796 15.673 20.2695 15.8682L19.4075 17.3965C19.3984 17.4125 19.3886 17.4278 19.3779 17.4422C19.2596 17.6026 19.0488 17.6607 18.8678 17.5829C18.8511 17.5758 18.8348 17.5675 18.8187 17.558C18.8034 17.5489 18.7881 17.54 18.7728 17.5312C18.5409 17.3985 18.3039 17.2945 18.0646 17.2175C17.9806 17.1905 17.8964 17.1668 17.812 17.1463C17.7217 17.1245 17.6314 17.1063 17.541 17.0918C15.8661 16.8224 14.1945 17.7953 13.5599 19.3996C13.5194 19.5021 13.4831 19.6071 13.4512 19.7146C13.4354 19.768 13.4207 19.822 13.4072 19.8766C13.3329 20.176 13.293 20.4927 13.293 20.8235C13.293 21.0672 13.1 21.2647 12.862 21.2647H11.138C10.8999 21.2647 10.707 21.0672 10.707 20.8235C10.707 20.4927 10.6671 20.176 10.5928 19.8766C10.5792 19.822 10.5645 19.768 10.5487 19.7146C10.5169 19.6071 10.4806 19.5021 10.4401 19.3996C9.80544 17.7953 8.13384 16.8224 6.45901 17.0918C6.36864 17.1063 6.27826 17.1245 6.18804 17.1463C6.10364 17.1668 6.01937 17.1905 5.93537 17.2175ZM12 14C13.1046 14 14 13.1046 14 12C14 10.8954 13.1046 10 12 10C10.8954 10 10 10.8954 10 12C10 13.1046 10.8954 14 12 14Z" />
</svg>
